<?xml version="1.0" encoding="UTF-8" standalone="no"?> <svg width="64" height="64" viewBox="0 0 64 64" fill="none" xmlns="http://www.w3.org/2000/svg">
<g clip-path="url(#clip0_8:65771)">
<path d="M8 35C7.73478 35 7.48043 35.1054 7.29289 35.2929C7.10536 35.4804 7 35.7348 7 36V53C7 55.1217 7.84285 57.1566 9.34315 58.6569C10.8434 60.1571 12.8783 61 15 61H35C37.1217 61 39.1566 60.1571 40.6569 58.6569C42.1571 57.1566 43 55.1217 43 53V36C43 35.7348 42.8946 35.4804 42.7071 35.2929C42.5196 35.1054 42.2652 35 42 35H8Z" fill="#70DDA8"/>
<path d="M38.6405 8.12463L4.00046 28.1246C3.04391 28.6769 2.71618 29.9001 3.26846 30.8566C3.82075 31.8132 5.04391 32.1409 6.00046 31.5886L40.6405 11.5886C41.597 11.0363 41.9247 9.81319 41.3725 8.85663C40.8202 7.90008 39.597 7.57235 38.6405 8.12463Z" fill="#70DDA8"/>
<path d="M10.1248 10.7332L20.5171 4.73315C23.2733 3.14186 26.5488 2.71063 29.6229 3.53435C32.6971 4.35807 35.3181 6.36925 36.9094 9.12546L5.73248 27.1255C4.14118 24.3692 3.70996 21.0938 4.53368 18.0196C5.35739 14.9455 7.36858 12.3245 10.1248 10.7332V10.7332Z" fill="#70DDA8"/>
<path d="M12.8208 3.40247C13.5099 3.00464 14.3287 2.89684 15.0973 3.10276C15.8658 3.30869 16.5211 3.81149 16.9189 4.50054L17.9189 6.23259L12.7227 9.23259L11.7227 7.50054C11.3249 6.81149 11.2171 5.99262 11.423 5.22408C11.629 4.45555 12.1318 3.80029 12.8208 3.40247V3.40247Z" fill="#FD412D"/>
<path d="M57 11H49C46.7909 11 45 12.7909 45 15V21C45 23.2091 46.7909 25 49 25H57C59.2091 25 61 23.2091 61 21V15C61 12.7909 59.2091 11 57 11Z" fill="#FD412D"/>
<path d="M55 25H51V39H55V25Z" fill="#FAA108"/>
<path d="M54 39H52C50.3431 39 49 40.3431 49 42V58C49 59.6569 50.3431 61 52 61H54C55.6569 61 57 59.6569 57 58V42C57 40.3431 55.6569 39 54 39Z" fill="#FD412D"/>
<path d="M35 31.9999C34.5229 32.0033 34.0536 32.1216 33.632 32.3449C33.3561 31.73 32.9282 31.1954 32.3887 30.7916C31.8491 30.3877 31.2156 30.1279 30.5478 30.0365C29.88 29.9452 29.2 30.0254 28.5718 30.2695C27.9436 30.5136 27.3879 30.9137 26.957 31.4319C26.979 31.2888 26.9934 31.1446 27 30.9999C26.9911 30.0253 26.6266 29.0874 25.975 28.3625C25.3234 27.6376 24.4295 27.1755 23.4612 27.0632C22.493 26.9508 21.5171 27.1959 20.7168 27.7523C19.9165 28.3087 19.3469 29.1382 19.115 30.0849C18.7879 29.9892 18.4447 29.9613 18.1064 30.003C17.7681 30.0447 17.442 30.1552 17.1479 30.3276C16.8539 30.5 16.5983 30.7307 16.3967 31.0055C16.1951 31.2803 16.0518 31.5935 15.9757 31.9257C15.8995 32.2579 15.8921 32.6022 15.9539 32.9374C16.0157 33.2726 16.1454 33.5916 16.335 33.8749C16.5245 34.1581 16.77 34.3996 17.0564 34.5844C17.3427 34.7693 17.6638 34.8937 18 34.9499V34.9999H26.142C26.3116 35.6706 26.6532 36.2854 27.1333 36.7835C27.6133 37.2816 28.215 37.6458 28.8789 37.84C29.5428 38.0342 30.246 38.0518 30.9188 37.891C31.5916 37.7301 32.2107 37.3965 32.715 36.9229C33.0393 37.3079 33.4555 37.6049 33.925 37.7864C34.3945 37.968 34.9022 38.0282 35.4011 37.9616C35.9 37.895 36.3741 37.7036 36.7795 37.4052C37.1849 37.1068 37.5086 36.711 37.7205 36.2544C37.9324 35.7978 38.0258 35.2952 37.992 34.793C37.9582 34.2907 37.7983 33.8051 37.5272 33.381C37.256 32.9569 36.8823 32.6081 36.4405 32.3667C35.9988 32.1253 35.5034 31.9991 35 31.9999V31.9999Z" fill="#FAA108"/>
<path d="M42 34.0001H38.858C38.637 33.1439 38.1385 32.3851 37.4404 31.8424C36.7424 31.2996 35.8842 31.0034 35 31.0001C34.7348 31.0001 34.4804 31.1054 34.2929 31.293C34.1054 31.4805 34 31.7348 34 32.0001C34 32.2653 34.1054 32.5196 34.2929 32.7072C34.4804 32.8947 34.7348 33.0001 35 33.0001C35.3374 32.9971 35.6701 33.0796 35.9671 33.2399C36.264 33.4001 36.5156 33.6329 36.6984 33.9165C36.8812 34.2001 36.9893 34.5254 37.0126 34.862C37.0359 35.1986 36.9736 35.5357 36.8316 35.8418C36.6895 36.1479 36.4724 36.4131 36.2003 36.6126C35.9282 36.8122 35.6101 36.9397 35.2754 36.9833C34.9408 37.0268 34.6006 36.985 34.2865 36.8617C33.9724 36.7384 33.6946 36.5376 33.479 36.2781C33.3922 36.1749 33.2855 36.0904 33.1652 36.0296C33.0449 35.9687 32.9135 35.9328 32.779 35.9241C32.6438 35.9152 32.5083 35.9342 32.3808 35.98C32.2533 36.0257 32.1366 36.0972 32.038 36.1901C31.6606 36.5457 31.1968 36.7964 30.6926 36.9175C30.1884 37.0385 29.6613 37.0256 29.1637 36.8801C28.666 36.7345 28.215 36.4614 27.8554 36.0877C27.4959 35.7141 27.2403 35.253 27.114 34.7501C27.0586 34.5354 26.9334 34.3453 26.7582 34.2096C26.583 34.0738 26.3677 34.0001 26.146 34.0001H18.314C18.2762 33.9881 18.2378 33.9781 18.199 33.9701C17.9944 33.9397 17.7982 33.8674 17.6229 33.7576C17.4475 33.6478 17.2968 33.5029 17.1801 33.332C17.0635 33.1611 16.9835 32.968 16.9451 32.7647C16.9067 32.5614 16.9107 32.3524 16.957 32.1507C17.0033 31.9491 17.0908 31.7592 17.214 31.593C17.3372 31.4268 17.4934 31.2879 17.6729 31.185C17.8524 31.0821 18.0512 31.0174 18.2569 30.9951C18.4625 30.9727 18.6706 30.9931 18.868 31.0551C18.9968 31.0878 19.1308 31.0945 19.2623 31.0749C19.3937 31.0552 19.5199 31.0096 19.6335 30.9406C19.7471 30.8716 19.8458 30.7807 19.9238 30.6731C20.0019 30.5655 20.0577 30.4435 20.088 30.3141C20.2633 29.6056 20.6908 28.9853 21.2905 28.5694C21.8902 28.1535 22.621 27.9704 23.346 28.0545C24.071 28.1387 24.7404 28.4842 25.2289 29.0264C25.7175 29.5686 25.9916 30.2703 26 31.0001C25.998 31.0564 25.992 31.1126 25.982 31.1681L25.963 31.3241C25.94 31.5369 25.9859 31.7516 26.094 31.9364C26.2021 32.1213 26.3666 32.2665 26.5635 32.3508C26.7603 32.4351 26.979 32.454 27.1874 32.4048C27.3957 32.3555 27.5828 32.2406 27.721 32.0771C27.9994 31.7423 28.3477 31.4724 28.7413 31.2864C29.135 31.1003 29.5646 31.0026 30 31.0001C30.2652 31.0001 30.5196 30.8947 30.7071 30.7072C30.8946 30.5196 31 30.2653 31 30.0001C31 29.7348 30.8946 29.4805 30.7071 29.293C30.5196 29.1054 30.2652 29.0001 30 29.0001C29.2287 29.0002 28.4682 29.1818 27.78 29.5301C27.4787 28.5559 26.8867 27.6972 26.0835 27.069C25.2802 26.4408 24.3041 26.0732 23.2861 26.0156C22.268 25.9579 21.2566 26.2129 20.3876 26.7463C19.5186 27.2798 18.8334 28.0662 18.424 29.0001C17.8391 29.0097 17.266 29.1666 16.7577 29.4562C16.2494 29.7458 15.8223 30.1588 15.5157 30.6571C15.2092 31.1553 15.0331 31.7228 15.0038 32.3071C14.9745 32.8914 15.0929 33.4736 15.348 34.0001H8C7.46957 34.0001 6.96086 34.2108 6.58579 34.5858C6.21071 34.9609 6 35.4696 6 36.0001V42.0001C6 42.2653 6.10536 42.5196 6.29289 42.7072C6.48043 42.8947 6.73478 43.0001 7 43.0001C7.26522 43.0001 7.51957 42.8947 7.70711 42.7072C7.89464 42.5196 8 42.2653 8 42.0001V36.0001H25.432C25.7165 36.6598 26.1408 37.2499 26.6755 37.7298C27.2102 38.2097 27.8427 38.5678 28.5293 38.7795C29.2159 38.9912 29.9402 39.0515 30.6523 38.9561C31.3644 38.8607 32.0473 38.612 32.654 38.2271C33.1785 38.613 33.7899 38.8641 34.4343 38.9581C35.0787 39.0522 35.7363 38.9863 36.3492 38.7662C36.9622 38.5462 37.5116 38.1788 37.9491 37.6965C38.3866 37.2141 38.6987 36.6315 38.858 36.0001H42V53.0001C41.9979 54.8559 41.2597 56.6352 39.9474 57.9475C38.6351 59.2598 36.8559 59.9979 35 60.0001H15C13.1441 59.9979 11.3649 59.2598 10.0526 57.9475C8.7403 56.6352 8.00212 54.8559 8 53.0001V50.0001C8 49.7348 7.89464 49.4805 7.70711 49.293C7.51957 49.1054 7.26522 49.0001 7 49.0001C6.73478 49.0001 6.48043 49.1054 6.29289 49.293C6.10536 49.4805 6 49.7348 6 50.0001V53.0001C6.00265 55.3862 6.95171 57.6738 8.63896 59.3611C10.3262 61.0484 12.6139 61.9974 15 62.0001H35C37.3861 61.9974 39.6738 61.0484 41.361 59.3611C43.0483 57.6738 43.9974 55.3862 44 53.0001V36.0001C44 35.4696 43.7893 34.9609 43.4142 34.5858C43.0391 34.2108 42.5304 34.0001 42 34.0001Z" fill="#301993"/>
<path d="M39.507 7.62497C39.3744 7.3953 39.156 7.22771 38.8998 7.15907C38.6436 7.09044 38.3707 7.12637 38.141 7.25897L3.50101 27.259C3.38637 27.3242 3.28575 27.4114 3.20495 27.5156C3.12415 27.6198 3.06476 27.739 3.0302 27.8663C2.99565 27.9936 2.98661 28.1264 3.00361 28.2572C3.02061 28.388 3.06331 28.5141 3.12925 28.6283C3.19519 28.7425 3.28307 28.8426 3.38783 28.9227C3.4926 29.0028 3.61217 29.0614 3.73967 29.0951C3.86717 29.1288 4.00007 29.1369 4.13074 29.1191C4.2614 29.1012 4.38724 29.0577 4.50101 28.991L39.141 8.99097C39.3707 8.85836 39.5383 8.63994 39.6069 8.38377C39.6756 8.1276 39.6396 7.85465 39.507 7.62497V7.62497Z" fill="#301993"/>
<path d="M11.857 9.73303C11.9896 9.9627 12.208 10.1303 12.4642 10.1989C12.7204 10.2676 12.9933 10.2316 13.223 10.099L18.423 7.09903C18.6527 6.96642 18.8203 6.748 18.8889 6.49183C18.9575 6.23566 18.9216 5.96271 18.789 5.73303L17.785 4.00003C17.5243 3.54145 17.1754 3.13897 16.7585 2.81576C16.3416 2.49255 15.8649 2.255 15.3558 2.11679C14.8467 1.97857 14.3153 1.94242 13.7922 2.01042C13.269 2.07841 12.7645 2.24921 12.3077 2.51297C11.8509 2.77674 11.4507 3.12827 11.1303 3.54731C10.8098 3.96636 10.5754 4.44465 10.4406 4.95464C10.3058 5.46464 10.2732 5.99627 10.3446 6.51893C10.4161 7.04159 10.5902 7.54495 10.857 8.00003L11.857 9.73303ZM13.321 4.26903C13.7802 4.00374 14.326 3.93172 14.8384 4.0688C15.3507 4.20589 15.7876 4.54085 16.053 5.00003L16.553 5.86503L13.089 7.86503L12.589 7.00003C12.3241 6.54076 12.2524 5.99511 12.3897 5.48301C12.5269 4.9709 12.8619 4.53425 13.321 4.26903Z" fill="#301993"/>
<path d="M24.757 56.707C24.9456 56.8891 25.1982 56.9899 25.4604 56.9876C25.7226 56.9853 25.9734 56.8802 26.1588 56.6948C26.3442 56.5094 26.4494 56.2585 26.4517 55.9964C26.454 55.7342 26.3532 55.4816 26.171 55.2929C25.4223 54.542 25.0018 53.5249 25.0018 52.4645C25.0018 51.404 25.4223 50.3869 26.171 49.636C27.2949 48.5101 27.9262 46.9843 27.9262 45.3935C27.9262 43.8026 27.2949 42.2768 26.171 41.151C25.9824 40.9688 25.7298 40.868 25.4676 40.8703C25.2054 40.8726 24.9546 40.9777 24.7692 41.1631C24.5838 41.3485 24.4786 41.5994 24.4763 41.8615C24.4741 42.1237 24.5749 42.3763 24.757 42.5649C25.1285 42.9364 25.4231 43.3774 25.6242 43.8627C25.8252 44.348 25.9287 44.8681 25.9287 45.3935C25.9287 45.9188 25.8252 46.4389 25.6242 46.9242C25.4231 47.4095 25.1285 47.8505 24.757 48.222C23.6336 49.3481 23.0027 50.8738 23.0027 52.4645C23.0027 54.0551 23.6336 55.5808 24.757 56.707V56.707Z" fill="#301993"/>
<path d="M30.757 56.707C30.9456 56.8891 31.1982 56.9899 31.4604 56.9876C31.7226 56.9853 31.9734 56.8802 32.1588 56.6948C32.3442 56.5094 32.4494 56.2585 32.4517 55.9964C32.454 55.7342 32.3532 55.4816 32.171 55.2929C31.4223 54.542 31.0018 53.5249 31.0018 52.4645C31.0018 51.404 31.4223 50.3869 32.171 49.636C33.2949 48.5101 33.9262 46.9843 33.9262 45.3935C33.9262 43.8026 33.2949 42.2768 32.171 41.151C31.9824 40.9688 31.7298 40.868 31.4676 40.8703C31.2054 40.8726 30.9546 40.9777 30.7692 41.1631C30.5838 41.3485 30.4786 41.5994 30.4763 41.8615C30.4741 42.1237 30.5749 42.3763 30.757 42.5649C31.1285 42.9364 31.4231 43.3774 31.6242 43.8627C31.8252 44.348 31.9287 44.8681 31.9287 45.3935C31.9287 45.9188 31.8252 46.4389 31.6242 46.9242C31.4231 47.4095 31.1285 47.8505 30.757 48.222C29.6336 49.3481 29.0027 50.8738 29.0027 52.4645C29.0027 54.0551 29.6336 55.5808 30.757 56.707V56.707Z" fill="#301993"/>
<path d="M18.757 56.707C18.9456 56.8891 19.1982 56.9899 19.4604 56.9876C19.7226 56.9853 19.9734 56.8802 20.1588 56.6948C20.3442 56.5094 20.4494 56.2585 20.4517 55.9964C20.454 55.7342 20.3532 55.4816 20.171 55.2929C19.4223 54.542 19.0018 53.5249 19.0018 52.4645C19.0018 51.404 19.4223 50.3869 20.171 49.636C21.2949 48.5101 21.9262 46.9843 21.9262 45.3935C21.9262 43.8026 21.2949 42.2768 20.171 41.151C19.9824 40.9688 19.7298 40.868 19.4676 40.8703C19.2054 40.8726 18.9546 40.9777 18.7692 41.1631C18.5838 41.3485 18.4786 41.5994 18.4763 41.8615C18.4741 42.1237 18.5749 42.3763 18.757 42.5649C19.1285 42.9364 19.4231 43.3774 19.6242 43.8627C19.8252 44.348 19.9287 44.8681 19.9287 45.3935C19.9287 45.9188 19.8252 46.4389 19.6242 46.9242C19.4231 47.4095 19.1285 47.8505 18.757 48.222C17.6336 49.3481 17.0027 50.8738 17.0027 52.4645C17.0027 54.0551 17.6336 55.5808 18.757 56.707V56.707Z" fill="#301993"/>
<path d="M57 10H49C47.6744 10.0016 46.4036 10.5289 45.4662 11.4662C44.5289 12.4036 44.0016 13.6744 44 15V21C44.0016 22.3256 44.5289 23.5964 45.4662 24.5338C46.4036 25.4711 47.6744 25.9984 49 26H57C58.3256 25.9984 59.5964 25.4711 60.5338 24.5338C61.4711 23.5964 61.9984 22.3256 62 21V15C61.9984 13.6744 61.4711 12.4036 60.5338 11.4662C59.5964 10.5289 58.3256 10.0016 57 10V10ZM60 21C60 21.7956 59.6839 22.5587 59.1213 23.1213C58.5587 23.6839 57.7956 24 57 24V15C57 14.7348 56.8946 14.4804 56.7071 14.2929C56.5196 14.1054 56.2652 14 56 14C55.7348 14 55.4804 14.1054 55.2929 14.2929C55.1054 14.4804 55 14.7348 55 15V24H49C48.2044 24 47.4413 23.6839 46.8787 23.1213C46.3161 22.5587 46 21.7956 46 21V15C46 14.2044 46.3161 13.4413 46.8787 12.8787C47.4413 12.3161 48.2044 12 49 12V21C49 21.2652 49.1054 21.5196 49.2929 21.7071C49.4804 21.8946 49.7348 22 50 22C50.2652 22 50.5196 21.8946 50.7071 21.7071C50.8946 21.5196 51 21.2652 51 21V12H57C57.7956 12 58.5587 12.3161 59.1213 12.8787C59.6839 13.4413 60 14.2044 60 15V21Z" fill="#301993"/>
<path d="M56 35V29C56 28.7348 55.8946 28.4804 55.7071 28.2929C55.5196 28.1054 55.2652 28 55 28C54.7348 28 54.4804 28.1054 54.2929 28.2929C54.1054 28.4804 54 28.7348 54 29V35C54 35.2652 54.1054 35.5196 54.2929 35.7071C54.4804 35.8946 54.7348 36 55 36C55.2652 36 55.5196 35.8946 55.7071 35.7071C55.8946 35.5196 56 35.2652 56 35Z" fill="#301993"/>
<path d="M52 35V29C52 28.7348 51.8946 28.4804 51.7071 28.2929C51.5196 28.1054 51.2652 28 51 28C50.7348 28 50.4804 28.1054 50.2929 28.2929C50.1054 28.4804 50 28.7348 50 29V35C50 35.2652 50.1054 35.5196 50.2929 35.7071C50.4804 35.8946 50.7348 36 51 36C51.2652 36 51.5196 35.8946 51.7071 35.7071C51.8946 35.5196 52 35.2652 52 35Z" fill="#301993"/>
<path d="M54 38H52C50.9395 38.0013 49.9229 38.4232 49.173 39.173C48.4232 39.9229 48.0013 40.9395 48 42V58C48 59.0609 48.4214 60.0783 49.1716 60.8284C49.9217 61.5786 50.9391 62 52 62H54C55.0609 62 56.0783 61.5786 56.8284 60.8284C57.5786 60.0783 58 59.0609 58 58V42C58 40.9391 57.5786 39.9217 56.8284 39.1716C56.0783 38.4214 55.0609 38 54 38ZM56 58C56 58.5304 55.7893 59.0391 55.4142 59.4142C55.0391 59.7893 54.5304 60 54 60H52C51.4696 60 50.9609 59.7893 50.5858 59.4142C50.2107 59.0391 50 58.5304 50 58V42C50 41.4696 50.2107 40.9609 50.5858 40.5858C50.9609 40.2107 51.4696 40 52 40H54C54.5304 40 55.0391 40.2107 55.4142 40.5858C55.7893 40.9609 56 41.4696 56 42V58Z" fill="#301993"/>
</g>
<defs>
<clipPath id="clip0_8:65771">
<rect width="64" height="64" fill="white"/>
</clipPath>
</defs>
</svg>
