<svg xmlns="http://www.w3.org/2000/svg"  viewBox="0 0 48 48" width="48px" height="48px"><path fill="#2196f3" d="M29,33L29,33l-5,1l-5-1c0,0-11,1.986-11,13h32C40,35.025,29,33,29,33"/><path fill="#ff9800" d="M24,36c-4,0-5-3-5-3v-6h10v6C29,33,28,36,24,36z"/><path fill="#ffa726" d="M35,21c0,1.106-0.895,2-2,2c-1.106,0-2-0.894-2-2c0-1.105,0.894-2,2-2C34.105,19,35,19.895,35,21 M17,21c0-1.105-0.895-2-2-2c-1.106,0-2,0.895-2,2c0,1.106,0.894,2,2,2C16.105,23,17,22.106,17,21"/><path fill="#ffb74d" d="M33,15c0-7.635-18-4.971-18,0v7c0,4.971,4.029,9,9,9c4.971,0,9-4.029,9-9V15z"/><path fill="#424242" d="M24,6c-6.075,0-10,4.926-10,11v2.285L16,21v-5l12-4l4,4v5l2-1.742V17c0-4.025-1.038-8.016-6-9l-1-2H24z"/><path fill="#784719" d="M27,21c0-0.551,0.448-1,1-1s1,0.449,1,1c0,0.551-0.448,1-1,1S27,21.551,27,21 M19,21c0,0.551,0.448,1,1,1s1-0.449,1-1c0-0.551-0.448-1-1-1S19,20.449,19,21"/><path fill="#1e88e5" d="M30.5,4c-0.643,0-1.258,0.116-1.832,0.319C27.57,2.91,25.862,2,23.938,2c-1.909,0-3.605,0.894-4.704,2.283C18.688,4.102,18.106,4,17.5,4C14.462,4,12,6.463,12,9.5c0,3.039,2.462,5.5,5.5,5.5c1.506,0,2.869-0.606,3.863-1.586C22.144,13.786,23.014,14,23.938,14c0.956,0,1.856-0.229,2.658-0.627C27.592,14.378,28.973,15,30.5,15c3.037,0,5.5-2.461,5.5-5.5C36,6.463,33.537,4,30.5,4z"/><path fill="#64b5f6" d="M34,17c0,0-5-1-10-1s-10,1-10,1c0-4,1-8,1-8s2.376-2,9.25-2C31.125,7,33,9,33,9S34,13,34,17z"/><path fill="#e3f2fd" d="M20.5 40A1.5 1.5 0 1 0 20.5 43 1.5 1.5 0 1 0 20.5 40zM27.5 40A1.5 1.5 0 1 0 27.5 43 1.5 1.5 0 1 0 27.5 40z"/><path fill="#e3f2fd" d="M28.996,31.746C28.56,32.479,26.85,35,24,35c-2.902,0-4.622-2.615-5.019-3.293l-1.33,1.633c0.33,0.476,0.817,1.08,1.45,1.66H17c-0.553,0-1,0.447-1,1v10h2v-9h6c3.331,0,5.422-2.324,6.345-3.656C30.328,33.344,29.016,31.734,28.996,31.746z"/></svg>