<svg xmlns="http://www.w3.org/2000/svg" xmlns:xlink="http://www.w3.org/1999/xlink" viewBox="0 0 512 512" width="64px" height="64px"><defs><linearGradient id="NsFSSiu1cLIW5Qr8ZEfASa" x1="299.486" x2="299.486" y1="34.825" y2="481.96" gradientUnits="userSpaceOnUse"><stop offset="0" stop-color="#00efd1"/><stop offset="1" stop-color="#00acea"/></linearGradient><linearGradient id="NsFSSiu1cLIW5Qr8ZEfASb" x1="212.514" x2="212.514" y1="34.825" y2="481.96" xlink:href="#NsFSSiu1cLIW5Qr8ZEfASa"/><linearGradient id="NsFSSiu1cLIW5Qr8ZEfASc" x1="256" x2="256" y1="34.825" y2="481.96" xlink:href="#NsFSSiu1cLIW5Qr8ZEfASa"/></defs><path fill="url(#NsFSSiu1cLIW5Qr8ZEfASa)" d="M439.844,199.764a6,6,0,0,0-10.035,0l-51.631,78.722a6.2,6.2,0,0,0-.262,6.253A6.1,6.1,0,0,0,383.2,288h43.767a180.324,180.324,0,0,1-61.636,112.432c-31.82,27.284-71.791,42.877-109.662,42.877-24.7,0-50.523-6.686-74.683-19.284a185.68,185.68,0,0,1-63.625-54.588,6,6,0,1,0-9.681,7.079,197.681,197.681,0,0,0,67.759,58.123c25.865,13.487,53.608,20.615,80.23,20.615,40.693,0,83.511-16.591,117.473-45.713A193.7,193.7,0,0,0,439.069,288h47.387a6.138,6.138,0,0,0,5.018-9.457ZM394.306,276l40.52-61.782L475.346,276Z"/><path fill="url(#NsFSSiu1cLIW5Qr8ZEfASb)" d="M134.084,227.261A6.1,6.1,0,0,0,128.805,224H85.038a180.324,180.324,0,0,1,61.636-112.432c31.82-27.284,71.791-42.877,109.662-42.877,24.7,0,50.523,6.686,74.683,19.284a185.68,185.68,0,0,1,63.625,54.588,6,6,0,1,0,9.681-7.079,197.681,197.681,0,0,0-67.759-58.123c-25.865-13.487-53.608-20.615-80.23-20.615-40.693,0-83.511,16.591-117.473,45.713A193.7,193.7,0,0,0,72.931,224H25.544a6.138,6.138,0,0,0-5.018,9.457l51.63,78.751a6,6,0,0,0,10.035.021l51.631-78.774A6.1,6.1,0,0,0,134.084,227.261Zm-56.91,70.521L36.654,236h81.04Z"/><path fill="url(#NsFSSiu1cLIW5Qr8ZEfASc)" d="M256,262.143a56.636,56.636,0,1,0-56.636-56.636A56.7,56.7,0,0,0,256,262.143Zm0-101.272a44.636,44.636,0,1,1-44.636,44.636A44.687,44.687,0,0,1,256,160.871Z"/><path fill="url(#NsFSSiu1cLIW5Qr8ZEfASc)" d="M167.5,296.289A83.557,83.557,0,0,0,149,348.546v8.583A5.9,5.9,0,0,0,155.015,363h201.97A5.9,5.9,0,0,0,363,357.129v-8.583a83.674,83.674,0,0,0-64.141-81.365,6.006,6.006,0,0,0-4.841.942,65.057,65.057,0,0,1-75.462,0,6.011,6.011,0,0,0-4.832-.944A84.328,84.328,0,0,0,167.5,296.289Zm45.954-16.646a76.98,76.98,0,0,0,85.255-.112A71.7,71.7,0,0,1,351,348.546V351H161v-2.454a71.511,71.511,0,0,1,15.842-44.724A72.4,72.4,0,0,1,213.455,279.643Z"/></svg>