<svg xmlns="http://www.w3.org/2000/svg"  viewBox="0 0 64 64" width="64px" height="64px" baseProfile="basic"><path fill="#ffce29" d="M32,50.165l-12.123,6.374c-2.887,1.518-6.262-0.934-5.711-4.149l2.315-13.5L6.673,29.33	c-2.336-2.277-1.047-6.244,2.181-6.713l13.554-1.97l6.062-12.282c1.444-2.925,5.615-2.925,7.059,0l6.062,12.282l13.554,1.97	c3.228,0.469,4.517,4.436,2.181,6.713l-9.808,9.561l2.315,13.5c0.551,3.215-2.823,5.667-5.711,4.149L32,50.165z"/><line x1="28.353" x2="31.115" y1="17.643" y2="12.047" fill="none" stroke="#fff" stroke-linecap="round" stroke-linejoin="round" stroke-miterlimit="10" stroke-width="3"/><ellipse cx="32" cy="61" opacity=".3" rx="19" ry="3"/><path d="M53.837,25.75l-9.809,9.561c-1.179,1.149-1.716,2.804-1.438,4.426l1.95,11.375L34.327,45.74 c-1.457-0.766-3.197-0.766-4.654,0L17.55,52.113c-1.382,0.727-2.261,2.015-2.551,3.435c1.113,1.346,3.088,1.931,4.877,0.991 L32,50.165l12.123,6.374c2.887,1.518,6.262-0.934,5.711-4.149l-2.315-13.5l9.808-9.561c1.448-1.411,1.501-3.47,0.565-4.945 C56.452,24.222,54.956,24.66,53.837,25.75z" opacity=".15"/><path fill="#fff" d="M28.471,8.365l-6.062,12.282l-13.554,1.97c-2.006,0.292-3.262,1.934-3.365,3.683 c0.9,0.821,2.084,1.318,3.36,1.318c0.239,0,0.481-0.017,0.725-0.052l13.555-1.97c1.629-0.237,3.037-1.26,3.765-2.735l6.062-12.282 c0.692-1.401,0.646-2.96,0.045-4.278C31.308,5.865,29.366,6.551,28.471,8.365z" opacity=".3"/></svg>